inDegrees=no
num_controls=7
num_derivatives=13
num_iterations=83
num_multipliers=7
num_parameters=0
num_slacks=7
num_states=26
objective=0.330003
objective_accelerations=0.043005
objective_balance=0.001416
objective_effort=0.031639
objective_height=0.252314
objective_ligament=0.001630
solver_duration=872.303253
status=Solve_Succeeded
success=true
DataType=double
version=3
OpenSimVersion=4.5
endheader
time	/jointset/ground_pelvis/pelvis_tilt/value	/jointset/ground_pelvis/pelvis_tx/value	/jointset/ground_pelvis/pelvis_ty/value	/jointset/hip_r/hip_flexion_r/value	/jointset/hip_r/hip_adduction_r/value	/jointset/hip_r/hip_rotation_r/value	/jointset/back/lumbar_extension/value	/jointset/patellofemoral_r/patellar_flexion_r/value	/jointset/knee_r/knee_flexion_r/value	/jointset/knee_r/knee_adduction_r/value	/jointset/knee_r/knee_rotation_r/value	/jointset/ankle_r/ankle_angle_r/value	/jointset/subtalar_r/subtalar_angle_r/value	/jointset/ground_pelvis/pelvis_tilt/speed	/jointset/ground_pelvis/pelvis_tx/speed	/jointset/ground_pelvis/pelvis_ty/speed	/jointset/hip_r/hip_flexion_r/speed	/jointset/hip_r/hip_adduction_r/speed	/jointset/hip_r/hip_rotation_r/speed	/jointset/back/lumbar_extension/speed	/jointset/patellofemoral_r/patellar_flexion_r/speed	/jointset/knee_r/knee_flexion_r/speed	/jointset/knee_r/knee_adduction_r/speed	/jointset/knee_r/knee_rotation_r/speed	/jointset/ankle_r/ankle_angle_r/speed	/jointset/subtalar_r/subtalar_angle_r/speed	/forceset/tau_hip_flexion_r	/forceset/tau_hip_adduction_r	/forceset/tau_hip_rotation_r	/forceset/tau_knee_flexion_r	/forceset/tau_ankle_angle_r	/forceset/tau_subtalar_angle_r	/forceset/tau_lumbar_extension	lambda_cid13_p0	lambda_cid14_p0	lambda_cid14_p1	lambda_cid14_p2	lambda_cid14_p3	lambda_cid14_p4	lambda_cid14_p5	/jointset/ground_pelvis/pelvis_tilt/accel	/jointset/ground_pelvis/pelvis_tx/accel	/jointset/ground_pelvis/pelvis_ty/accel	/jointset/hip_r/hip_flexion_r/accel	/jointset/hip_r/hip_adduction_r/accel	/jointset/hip_r/hip_rotation_r/accel	/jointset/back/lumbar_extension/accel	/jointset/patellofemoral_r/patellar_flexion_r/accel	/jointset/knee_r/knee_flexion_r/accel	/jointset/knee_r/knee_adduction_r/accel	/jointset/knee_r/knee_rotation_r/accel	/jointset/ankle_r/ankle_angle_r/accel	/jointset/subtalar_r/subtalar_angle_r/accel	gamma_cid13_p0	gamma_cid14_p0	gamma_cid14_p1	gamma_cid14_p2	gamma_cid14_p3	gamma_cid14_p4	gamma_cid14_p5
1	-0.3478702444657394	-0.02416067582013741	0.5631063593328547	1.704774377931896	-0.2431733180728934	0.06199249152795197	-0.785392739893028	1.678665170312449	1.678665170312449	-0.06596187762189432	0.1745312718943822	0.4361970947237937	0.1628707904624199	0.07147175974458991	0.004300233383850749	0.01598496304168282	-0.1012095985446685	-0.001926038604234978	-0.004614314969181373	-5.841639623069298e-05	-0.01562488374158955	-0.01562488374158954	0.001725340849669549	1.703266317919472e-05	0.01398821131104891	0.003382554472074198	-0.4122933040207125	0.02810720579893184	0.02348129118669671	-0.4655041165688923	-0.03583115490575585	-0.01456527786457051	0.4027198464377492	-0.03866568288571711	-66.33368597414389	-22.04399543921538	8.623815919848756	9.069646661274597	-794.8674776444434	58.21038650847802	1.44059778941861	0.1306476235519463	2.247474324151568	-6.630068119642772	-0.06713025602923677	-1.172375214091186	-0.02016853495159621	-5.641031632606187	-5.641031632606187	0.6902579093255924	0.0112334010444426	-0.7266070612068853	-0.4554958578373338	9.064071968059892e-10	-6.035318319261747e-10	-2.81916980442419e-09	8.832100985897181e-09	1.005199004896555e-09	-5.747510009879608e-09	-5.989840542311784e-09
1.01	-0.3470839341634541	-0.02411109229459404	0.5633784988255827	1.703431270500365	-0.2431956642978828	0.06188870970234545	-0.7853936414580283	1.678227032195791	1.678227032195791	-0.06590950642315863	0.1745313588142613	0.4363007558474506	0.1628823752511517	0.08581646624496961	0.005626301698271323	0.03844599600478085	-0.1674483755567226	-0.002544512416295099	-0.01613827466757288	-0.0001305663963962555	-0.07200580591986998	-0.07200580591987016	0.008754833821484431	3.869551398147651e-06	0.006751223864604022	-0.001064705429429342	-0.4119035695866778	0.02812633239942702	0.02352566188532742	-0.4658804327622159	-0.03534296726775735	-0.01459264332886318	0.4026337680067805	-0.03866835789097631	-66.17641350643848	-22.03950859030681	8.635854517620066	8.872178606233245	-794.8878850511998	58.24458252586888	1.435331989196977	0.1350605169326804	2.245874687050251	-6.626255780986812	-0.05939819176868598	-1.14184051395358	-0.002038701450068149	-5.637082908920934	-5.637082908920957	0.7101858944772322	-0.007058015680474056	-0.7211636976604503	-0.4392021324615551	2.231631326178064e-09	2.579886484085157e-10	1.65877971817471e-08	2.13164478887479e-08	-2.041735879965705e-09	-1.080131877384616e-08	2.388836806827532e-08
1.02	-0.3461533918143968	-0.02404795326959735	0.5638753400288739	1.701424680640911	-0.2432242337105883	0.06166980144651019	-0.7853955246167935	1.677224992777654	1.677224992777654	-0.06578666211403683	0.1745314207333468	0.4363322632743809	0.1628495152256371	0.1003181690993243	0.007011333274516767	0.06092530515433426	-0.2339060841287789	-0.003170676147326823	-0.02763960101558301	-0.0002547351526006789	-0.1284051440374293	-0.1284051440374296	0.01581996292801233	1.203250397373056e-05	-0.000442528033727306	-0.005506408377120873	-0.4115138351526456	0.02814545899992398	0.02357003258397656	-0.4662567489555384	-0.03485477962975804	-0.01462000879315248	0.4025476895758093	-0.03867706718608421	-66.02413416929788	-22.03419168153083	8.6458137886478	8.674565893793861	-795.0075597681126	58.2708957300192	1.471997060213587	0.142440275916931	2.251129561442645	-6.673854431643213	-0.06866823982356242	-1.167848544014912	-0.03057228615928403	-5.644714820461955	-5.644714820461957	0.6973851362681983	0.01549861391577452	-0.717959951584153	-0.4543844670749306	4.120226213603572e-09	2.25875163213173e-09	3.573980757603843e-08	3.517511920822774e-08	-7.000752497222482e-09	-1.505375960891591e-08	5.903721249725089e-08
1.03	-0.3450775221755769	-0.02397072100002213	0.5645969765859582	1.698753125861705	-0.2432590215818142	0.06133595860505828	-0.7853981324856896	1.675658704632152	1.675658704632153	-0.06559306734887449	0.1745315934049332	0.4362916479783091	0.162772232065145	0.1148346834706389	0.008439825639212604	0.08339632532246498	-0.3003715141496417	-0.003779773554551058	-0.03912678715917482	-0.0001981453485377148	-0.1848721618736908	-0.1848721618736911	0.02289866105632843	1.754349241617897e-05	-0.007713208004324058	-0.009952144325211579	-0.4112712643919877	0.02827115326706215	0.02361759428529682	-0.466227160834168	-0.03493127910274262	-0.01458257501657391	0.4026423964627149	-0.03870939597807448	-66.04820703986776	-22.01546686353299	8.635195858023097	8.698361086098535	-795.0805356041418	58.28095416890669	1.438317757406068	0.1437570405591794	2.244232218165138	-6.627883512479638	-0.05595485306549777	-1.138827238815602	0.03407860646348389	-5.650648001206592	-5.650648001206579	0.7130639371665662	-0.007652178891475396	-0.7365251012944687	-0.4399416380022348	6.014569782233709e-09	4.271139539358915e-09	5.488921637245342e-08	4.904781424624462e-08	-1.197928015256493e-08	-1.92980232202214e-08	9.423983892437333e-08
1.04	-0.3438571195666817	-0.02387906314203729	0.5655431521394574	1.695417917537257	-0.2432996852994915	0.06088730918431605	-0.7853981136580406	1.673527155761087	1.673527155761088	-0.06532869524522336	0.1745316752823661	0.4361773452662324	0.1626504368493065	0.1292247631145814	0.009896450956439054	0.105833104437272	-0.3666367931773773	-0.004345845437520869	-0.05060091687413883	0.000270604166502459	-0.2414572891498861	-0.2414572891498863	0.02997543062677575	-6.126327139017588e-06	-0.01518001123480195	-0.01440881944634643	-0.4110286936313267	0.02839684753420088	0.02366515598663597	-0.4661975727127965	-0.03500777857572777	-0.01454514123999496	0.4027371033496235	-0.03874757803014992	-66.07744528421495	-21.99587608184462	8.622417410920416	8.721659007795598	-795.2557008766341	58.28368738540711	1.446710114739133	0.1480668664230674	2.244281350777912	-6.633824233017782	-0.06006313497268482	-1.165237258289354	0.0518596560362661	-5.668336708448709	-5.668336708448708	0.6969994246944442	0.009662452316255182	-0.757184603560353	-0.4565723016837591	6.229423727736214e-09	5.962754991687999e-09	7.157711927220782e-08	5.879930340712143e-08	-1.780326759777466e-08	-2.189400184946455e-08	1.133629591672891e-07
1.05	-0.3424935849100065	-0.02377256435605455	0.5667133270611706	1.691421527629313	-0.243345825959068	0.06032403335177722	-0.7853900859175972	1.670829622273921	1.670829622273924	-0.06499364047629733	0.1745314544792197	0.4359875469258465	0.162484044891438	0.1434449390589328	0.0114214068903285	0.1281763923087412	-0.4325589490908112	-0.004878558426215611	-0.06204110754401532	0.001532539260269159	-0.2980235489975998	-0.2980235489976003	0.03703443045969514	-3.432310886416678e-05	-0.02279706839682524	-0.0188696642938063	-0.4113779947854089	0.02849621467741336	0.02369251842456107	-0.4653546741479813	-0.03560774543933802	-0.01440124836628948	0.4035018795111389	-0.03878639657280357	-66.24716362987444	-21.92943384312867	8.573370125325063	8.631237002499432	-795.3231928514645	58.26043902631054	1.40408728128737	0.1574202646175948	2.225524452447001	-6.559075304746154	-0.04930625393900408	-1.131441559531658	0.1929997365507972	-5.646893010068896	-5.646893010068929	0.7101900701471078	-0.008483826309914356	-0.7665803985459304	-0.4408322377707437	6.391793622515989e-09	7.64434630480152e-09	8.818810011269159e-08	6.842200488433763e-08	-2.365367566141775e-08	-2.443847157301825e-08	1.319835948419485e-07
1.06	-0.3409889653044876	-0.02365027394918379	0.5681061692510216	1.686768383355389	-0.243397179923156	0.05964674929490341	-0.7853635109661071	1.667567201710851	1.667567201710853	-0.06458802774753486	0.1745310670916797	0.4357210551886354	0.1622730461527959	0.1574417528834549	0.0130547751340446	0.1503665580648361	-0.4979876663738432	-0.005388506339755917	-0.0734025617416868	0.003980046374192577	-0.3544347043307614	-0.3544347043307621	0.04408702259487241	-3.94432063093578e-05	-0.03051869059975286	-0.02333017560101219	-0.4117272959394832	0.02859558182062751	0.02371988086249862	-0.4645117755831654	-0.03620771230294939	-0.01425735549258163	0.4042666556726616	-0.0388307883386419	-66.42233819999713	-21.86210197436541	8.522073377891207	8.540675614350825	-795.4968274802154	58.23076936232461	1.402037690773259	0.1697493283884157	2.213656927703072	-6.535136506937413	-0.05551011994180704	-1.149489963848354	0.2889740600675768	-5.637315805538309	-5.637315805538309	0.6957178851460258	0.0142777891722605	-0.7780976117411896	-0.4565055936329648	6.884444382590598e-09	8.254450483687916e-09	1.009205016961703e-07	7.47801474584928e-08	-2.609685472514278e-08	-2.795691148638052e-08	1.481181103754957e-07
